<?xml version="1.0" encoding="utf-8"?>
<!-- Generator: Adobe Illustrator 21.1.0, SVG Export Plug-In . SVG Version: 6.00 Build 0)  -->
<svg version="1.1" id="Camada_1" xmlns="http://www.w3.org/2000/svg" xmlns:xlink="http://www.w3.org/1999/xlink" x="0px" y="0px"
	 viewBox="0 0 777 232" style="enable-background:new 0 0 777 232;" xml:space="preserve">
<style type="text/css">
	.st0{fill-rule:evenodd;clip-rule:evenodd;fill:#007CB7;}
	.st1{fill-rule:evenodd;clip-rule:evenodd;fill:#00958E;}
</style>
<path class="st0" d="M462.5,173.6v-3.8c1.9-0.3,3.6-1.5,5-3.4c1.8-2.3,2.6-5,2.6-7.9c0-2-0.6-3.7-1.7-5c-1.1-1.4-2.7-2.1-4.6-2.1
	c-0.5,0-0.9,0-1.4,0.1v-3.7c0.5,0,1-0.1,1.6-0.1c3.3,0,6,1,8,2.9c2,1.9,3,4.6,3,7.9c0,4.3-1.2,7.9-3.7,10.8
	C469.2,171.9,466.2,173.3,462.5,173.6L462.5,173.6z M494.9,152.7c-0.7-0.4-1.5-0.7-2.4-0.9c-0.9-0.2-1.7-0.4-2.6-0.4
	c-1.3,0-2.4,0.2-3.3,0.6c-0.9,0.4-1.3,1.2-1.3,2.4c0,1.2,1.4,2.7,4.2,4.7c2.8,1.9,4.2,4.1,4.2,6.6c0,2.7-1,4.7-2.9,6
	c-1.9,1.3-4.1,1.9-6.5,1.9c-1.7,0-3.1-0.1-4-0.3c-0.9-0.2-2-0.5-3.2-0.9l0.9-3.9c1,0.4,2,0.8,2.9,1c0.9,0.3,1.8,0.4,2.7,0.4
	c1.5,0,2.7-0.3,3.7-0.9c1-0.6,1.5-1.6,1.5-2.9c0-0.7-1.4-2.3-4.2-4.7c-2.8-2.4-4.2-4.5-4.2-6.5c0-2.4,1-4.2,2.9-5.4
	c1.9-1.2,4.1-1.8,6.4-1.8c2.1,0,4.2,0.5,6.5,1.4L494.9,152.7z M462.5,147.8v3.7c-2.2,0.3-3.9,1.5-5.3,3.5c-1.6,2.4-2.4,5.1-2.4,7.9
	c0,2,0.5,3.7,1.6,5c1.1,1.3,2.7,2,4.7,2c0.5,0,0.9,0,1.3-0.1v3.8c-0.4,0-0.8,0-1.3,0c-3.5,0-6.2-0.9-8.2-2.8c-2-1.9-3-4.6-3-8.2
	c0-4.3,1.3-7.9,3.8-10.7C456,149.5,458.9,148.1,462.5,147.8L462.5,147.8z M403.3,173.1v-3.5c1.3-0.4,2.4-1.2,3.4-2.4
	c1.5-1.8,2.4-3.8,2.6-6.1h-3.5c-0.9,0-1.8,0.1-2.6,0.2v-3.4c1.2-0.1,2.4-0.2,3.7-0.2l3.3,0.1c0.1-0.4,0.1-0.8,0.2-1
	c0-0.3,0.1-0.5,0.1-0.6c0-1.7-0.5-3-1.5-3.7c-1-0.8-2.4-1.2-4.2-1.2c-0.5,0-1,0-1.6,0.1v-3.7c0.6-0.1,1.2-0.1,1.7-0.1
	c2.9,0,5.2,0.6,7.1,1.8c1.9,1.2,2.8,3.2,2.8,6c0,1.2-0.2,2.9-0.7,5.1c-0.5,2.2-0.9,4.5-1.4,6.8c-0.5,2.3-0.8,4.1-1,5.6h-4.2l0.8-4.1
	c-0.8,1.5-2,2.6-3.4,3.4C404.4,172.7,403.9,172.9,403.3,173.1L403.3,173.1z M424.1,152.1c0.1-0.5,0.2-1.1,0.3-1.8
	c0.1-0.6,0.2-1.3,0.3-2h4.3l-0.8,3.9c0.9-1.3,2-2.4,3.4-3.2c1.4-0.8,3.1-1.3,5.1-1.3c2.5,0,4.5,0.7,6,2c1.5,1.3,2.2,3.2,2.2,5.8
	c0,0.8,0,1.4-0.1,1.9c-0.1,0.5-0.2,1.3-0.5,2.6l-2.7,13l-4.5,0l3.1-14.8l0.2-2.3c0-1.3-0.4-2.4-1.2-3.2c-0.8-0.8-1.9-1.3-3.3-1.3
	c-2.5,0-4.5,1-6,3c-1.6,2-2.6,4.1-3,6.1l-2.6,12.5h-4.6L424.1,152.1z M403.3,147.8v3.7c-0.8,0.1-1.6,0.2-2.4,0.5
	c-1.3,0.4-2.5,0.9-3.6,1.5l0.8-4.5c1.2-0.4,2.4-0.7,3.6-0.9C402.2,148,402.8,147.9,403.3,147.8L403.3,147.8z M403.3,157.9v3.4
	c-1.2,0.2-2.4,0.5-3.4,1c-1.8,0.8-2.6,2.2-2.6,4.2c0,1,0.4,1.9,1.2,2.4c0.8,0.6,1.8,0.9,2.9,0.9c0.7,0,1.4-0.1,2-0.3v3.5
	c-1,0.3-2,0.5-3,0.5c-2.3,0-4.1-0.6-5.7-1.7c-1.5-1.2-2.3-2.9-2.3-5.1c0-3.3,1.3-5.6,3.9-7C398.2,158.9,400.5,158.2,403.3,157.9
	L403.3,157.9z M377.1,173.6v-3.8c2-0.3,3.7-1.5,4.9-3.7c1.5-2.5,2.3-5.4,2.3-8.7c0-2-0.5-3.5-1.5-4.6c-1-1-2.3-1.6-4-1.6
	c-0.6,0-1.1,0.1-1.7,0.2v-3.5c1-0.2,2-0.3,3.2-0.3c2.8,0,4.9,0.9,6.5,2.6c1.6,1.7,2.4,4,2.4,6.8c0,4.8-1.1,8.7-3.2,11.8
	C383.8,172,380.9,173.5,377.1,173.6z M377.1,148.1v3.5c-1.8,0.4-3.4,1.6-4.7,3.4c-1.7,2.4-2.5,5.2-2.5,8.4c0,1.8,0.5,3.3,1.6,4.6
	c1.1,1.3,2.6,1.9,4.6,1.9c0.4,0,0.7,0,1-0.1v3.8c-0.1,0-0.3,0-0.4,0c-2.4,0-4.2-0.4-5.4-1.2c-1.2-0.8-2.2-2-2.9-3.5l-0.9,4.1h-4.1
	v-0.6l7.6-35.8h4.6l-3.1,14.3C373.5,149.5,375.1,148.5,377.1,148.1L377.1,148.1z M363.3,148.6l0.1-0.5l-0.1,0V148.6z M363.3,148.1
	v0.5l-0.9,3.5c-0.8-0.3-1.5-0.5-1.9-0.5c-2.5,0-4.5,1-6,3c-1.6,2-2.6,4.1-3,6.1l-2.6,12.2h-4.6l4.3-21c0.1-0.5,0.2-1.1,0.3-1.8
	c0.1-0.6,0.2-1.3,0.3-2h4.3l-0.8,3.9c0.9-1.3,2-2.4,3.4-3.2c1.4-0.8,3.1-1.2,5.1-1.2c0.4,0,0.7,0,0.9,0.1
	C362.5,147.8,362.8,147.9,363.3,148.1L363.3,148.1z M363.3,172.5l-0.1,0.6h0.1V172.5L363.3,172.5z M232.8,173.6v-3.7
	c0.2,0,0.4,0,0.6,0c1.1,0,2.3-0.1,3.4-0.4c1.2-0.3,2.3-0.6,3.5-1.1l-0.7,4.2c-1.3,0.3-2.5,0.6-3.7,0.8
	C234.9,173.5,233.9,173.6,232.8,173.6L232.8,173.6z M232.8,161.7v-3.4h6.3l0.1-1.9c0-1.5-0.5-2.7-1.4-3.6c-0.9-0.9-2.2-1.4-3.9-1.4
	c-0.4,0-0.8,0-1.2,0.1v-3.7c0.5-0.1,1.1-0.1,1.6-0.1c3,0,5.3,0.8,6.9,2.5c1.6,1.7,2.4,4,2.4,6.9c0,1,0,1.7-0.1,2.1
	c0,0.4-0.2,1.2-0.4,2.4H232.8L232.8,161.7z M251.6,152.1c0.1-0.5,0.2-1.1,0.3-1.8c0.1-0.6,0.2-1.3,0.3-2h4.3l-0.8,3.9
	c0.9-1.3,2-2.4,3.4-3.2c1.4-0.8,3.1-1.3,5.1-1.3c2.5,0,4.5,0.7,6,2c1.5,1.3,2.2,3.2,2.2,5.8c0,0.8,0,1.4-0.1,1.9
	c-0.1,0.5-0.2,1.3-0.5,2.6l-2.7,13l-4.5,0l3.1-14.8l0.2-2.3c0-1.3-0.4-2.4-1.2-3.2c-0.8-0.8-1.9-1.3-3.3-1.3c-2.5,0-4.5,1-6,3
	c-1.6,2-2.6,4.1-3,6.1l-2.6,12.5h-4.6L251.6,152.1L251.6,152.1z M292.8,152.7c-0.7-0.4-1.5-0.7-2.4-0.9c-0.9-0.2-1.7-0.4-2.6-0.4
	c-1.3,0-2.4,0.2-3.3,0.6c-0.9,0.4-1.3,1.2-1.3,2.4c0,1.2,1.4,2.7,4.2,4.7c2.8,1.9,4.2,4.1,4.2,6.6c0,2.7-1,4.7-2.9,6
	c-1.9,1.3-4.1,1.9-6.5,1.9c-1.7,0-3.1-0.1-4-0.3c-0.9-0.2-2-0.5-3.2-0.9l0.9-3.9c1,0.4,2,0.8,2.9,1c0.9,0.3,1.8,0.4,2.7,0.4
	c1.5,0,2.7-0.3,3.7-0.9c1-0.6,1.5-1.6,1.5-2.9c0-0.7-1.4-2.3-4.2-4.7c-2.8-2.4-4.2-4.5-4.2-6.5c0-2.4,1-4.2,2.9-5.4
	c1.9-1.2,4.1-1.8,6.4-1.8c2.1,0,4.2,0.5,6.5,1.4L292.8,152.7L292.8,152.7z M338.9,159.1c-1.1,5.1-2.9,8.8-5.3,11.1
	c-2.4,2.3-5.6,3.5-9.5,3.5c-4.2,0-7.2-1.1-9.1-3.3c-1.9-2.2-2.8-4.5-2.8-7c0-1.1,0.2-2.4,0.5-4c0.3-1.6,0.6-2.8,0.7-3.5l3.6-16.6
	h4.9l-4.4,20.4c-0.3,1.3-0.4,2.3-0.4,3c0,2.2,0.7,3.8,2,5c1.3,1.2,3.1,1.7,5.4,1.7c3.2,0,5.5-1.2,6.9-3.6c1.5-2.4,2.6-5.5,3.4-9.4
	l3.7-17.2h4.9L338.9,159.1z M203.2,143.5h-0.4v-4.3h1.3L203.2,143.5L203.2,143.5z M232.8,147.8v3.7c-1.3,0.2-2.5,0.9-3.6,1.9
	c-1.4,1.3-2.3,3-2.8,4.9h6.4v3.4h-6.9l-0.1,1.6c0,2.5,0.7,4.2,2,5.2c1.2,0.9,2.9,1.4,5,1.5v3.7c-0.2,0-0.3,0-0.5,0
	c-3.4,0-6.2-0.8-8.3-2.5c-2.1-1.7-3.1-4.6-3.1-8.6c0-3.8,1.2-7.1,3.7-10.2C226.7,149.7,229.5,148.2,232.8,147.8L232.8,147.8z
	 M202.8,173v-6.5l3-14.5c0.1-0.5,0.2-1.1,0.3-1.8c0.1-0.6,0.2-1.3,0.3-2h4.3l-0.8,3.9c0.9-1.3,2-2.4,3.4-3.2
	c1.4-0.8,3.1-1.2,5.1-1.2c0.4,0,0.7,0,0.9,0.1c0.2,0,0.6,0.2,1.2,0.4l-1,4c-0.8-0.3-1.5-0.5-1.9-0.5c-2.5,0-4.5,1-6,3
	c-1.6,2-2.6,4.1-3,6.1l-2.6,12.2H202.8z M202.8,143.5h-10.1l-6.4,29.6h-4.9l6.3-29.6h-10.5l0.9-4.3h24.6V143.5L202.8,143.5z
	 M202.8,166.6l-1.3,6.5h1.3V166.6z"/>
<path class="st0" d="M633,29.8c-6.2,3-15.5,7.4-22.5,17.6l50.7-0.1l7.6-11.8h75.9l3.7-5.7H633L633,29.8L633,29.8z"/>
<path class="st0" d="M606.7,55.1c-2.1,4.1-5.2,11.9-7.1,17.3h45.6l7.4-11.6h75.9l3.6-5.7H606.7L606.7,55.1z"/>
<path class="st0" d="M597.3,80.6c-1.5,5.2-3.1,10.9-5.7,17.7h37.2l7.2-12h76l3.6-5.7H597.3L597.3,80.6z"/>
<path class="st0" d="M589.2,106c0,0-2.8,6-5.2,9.9c-3.5,5.7-5.5,7.8-5.5,7.8h34.1l7.2-11.9h75.8l3.7-5.8H589.2L589.2,106z"/>
<polygon class="st0" points="557.8,209.4 586.9,162.4 662.9,162.4 666.5,156.7 539.6,156.7 557.8,209.4 "/>
<path class="st0" d="M571.7,131.3c-8,8.9-14.8,14.3-19.8,17.9h43.6l7.8-12h75.9l3.6-5.8H571.7L571.7,131.3z"/>
<path class="st0" d="M212.7,99.6v-6.8c0.2,0,0.5,0,0.7,0c1.8,0,3.6-0.2,5.5-0.7c1.9-0.4,3.7-1.1,5.5-1.9l-1.2,7.4
	c-1.8,0.6-3.7,1-5.8,1.4C215.8,99.4,214.2,99.6,212.7,99.6L212.7,99.6z M212.7,83.8v-6.4h7.8l0.2-2.4c0-4-2-6-5.9-6
	c-0.7,0-1.4,0.1-2.1,0.2v-6.9c0.7-0.1,1.5-0.1,2.2-0.1c4.6,0,8.1,1.2,10.8,3.5c2.6,2.3,3.9,5.7,3.9,10.2c0,2.5-0.3,5.1-0.9,8H212.7
	L212.7,83.8z M253.4,67.7l0.8-4.8h8.9l-1.3,6.8c0.9-2,2.4-3.8,4.5-5.3c2.1-1.5,4.1-2.3,6.2-2.3c0.6,0,1.2,0,1.8,0.1
	c0.6,0,1.2,0.1,1.7,0.3l-2,9.1c-1.1-0.4-2.3-0.6-3.6-0.6c-3,0-5.4,1.1-7.3,3.4c-1.8,2.3-3.1,5-3.8,8.3l-3.3,16.1H247L253.4,67.7z
	 M212.7,62.2v6.9c-1.7,0.3-3.1,0.9-4.2,2c-1.5,1.4-2.8,3.5-3.8,6.3h8v6.4h-9.3c0,3.2,0.8,5.5,2.5,6.9c1.6,1.3,3.8,2.1,6.8,2.1v6.8
	c-0.3,0-0.6,0-0.9,0c-5.3,0-9.5-1.3-12.6-4c-3.1-2.6-4.7-6.6-4.7-11.7c0-5.8,2-10.9,5.9-15.3C203.9,64.9,208,62.7,212.7,62.2
	L212.7,62.2z M155.7,98.2v-7.5c2.4-0.6,4.3-2.1,5.7-4.8c1.7-3.3,2.5-6.8,2.5-10.4c0-2.3-0.6-4.2-1.7-5.6c-1.1-1.4-2.7-2.1-4.9-2.1
	c-0.6,0-1.1,0.1-1.7,0.2v-6.6c1.5-0.5,3.1-0.8,4.8-0.8c4.3,0,7.6,1.3,9.8,4c2.2,2.6,3.3,6.2,3.3,10.6c0,6.1-1.6,11.5-4.9,16.1
	C165.6,95.8,161.3,98.1,155.7,98.2z M55.3,70.6c-1.4-0.5-2.7-0.9-3.9-1.2c-1.2-0.3-2.5-0.5-3.7-0.5c-1.8,0-3.3,0.3-4.5,0.8
	c-1.2,0.5-1.8,1.5-1.8,2.8c0,1.1,2,3.1,6.1,5.9c4,2.8,6.1,5.8,6.1,9.1c0,4.3-1.5,7.4-4.6,9.3c-3.1,1.9-6.9,2.9-11.5,2.9
	c-2.2,0-4.1-0.2-5.8-0.5c-1.7-0.3-3.4-0.9-5.2-1.7l2-7.5c2.1,1.2,3.8,1.9,5,2.3c1.3,0.3,2.6,0.5,3.9,0.5c1.9,0,3.4-0.3,4.6-0.9
	c1.2-0.6,1.8-1.6,1.8-3c0-1.7-2-3.8-6.1-6.5c-4-2.6-6.1-5.6-6.1-8.9c0-3.9,1.5-6.8,4.6-8.6c3.1-1.9,6.7-2.8,10.9-2.8
	c1.5,0,3.2,0.1,4.9,0.4c1.7,0.3,3.5,0.6,5.3,1.1L55.3,70.6L55.3,70.6z M155.7,61.5v6.6c-2.2,0.5-4,2-5.5,4.5
	c-1.8,3.1-2.8,6.4-2.8,10c0,2.6,0.5,4.6,1.5,6.1c1,1.5,2.5,2.3,4.7,2.3c0.7,0,1.4-0.1,2.1-0.2v7.5c-0.2,0-0.5,0-0.7,0
	c-2.3,0-4.4-0.5-6.2-1.5c-1.8-1-3-2.6-3.7-4.9l-4.3,20.2h-9.3l9.5-45.9c0.1-0.8,0.3-1.5,0.4-2.2c0.1-0.7,0.3-1.5,0.3-2.5h8.9l-1,4.7
	C151.3,64,153.3,62.4,155.7,61.5L155.7,61.5z M112,93.6l-0.9,5.2H102l0.6-3.5c-1.5,1.3-3.1,2.3-4.8,3.1c-1.7,0.8-3.6,1.2-5.5,1.2
	c-3.5,0-6.4-1-8.5-3.1c-2.1-2-3.2-4.9-3.2-8.4c0-1.1,0.1-2.2,0.3-3.5c0.2-1.2,0.5-2.7,0.9-4.4l3.8-17.4h9.3l-3.5,16.9
	c-0.4,1.8-0.6,3.2-0.8,4.2c-0.2,1-0.2,2.1-0.2,3.3c0,1.5,0.5,2.7,1.4,3.6c0.9,0.9,2.2,1.4,3.7,1.4c2.9,0,5.1-1.1,6.6-3.2
	c1.5-2.2,2.7-4.9,3.4-8.2l3.8-18.1h9.3L112,93.6z"/>
<polygon class="st1" points="300.2,62.4 307.2,99.9 323.9,99.9 348.1,62.2 331.5,62.4 318.1,87.6 315.4,62.3 "/>
<polygon class="st1" points="370.8,100 379.7,62.3 395,62.3 386.1,100 "/>
<polygon class="st1" points="411.5,99.7 435.6,62.1 452.4,62.1 459.3,99.7 443.8,99.7 441.2,76.1 428.3,99.7 "/>
<path class="st1" d="M496.2,29.9l24.9,71.4c11.3,1,22.1-3.5,33.8-9.6c8.2-4.2,15.2-9.9,21.7-16.9c6.4-6.9,10.5-15.2,16.3-22.6
	c3.2-4.1,6.1-8.8,9.9-12.4c4.1-3.9,9.8-7.2,15.6-9.9H496.2z"/>
</svg>
